<svg width="1957" height="947" viewBox="0 0 1957 947" fill="none" xmlns="http://www.w3.org/2000/svg">
<mask id="path-1-inside-1_1153_290" fill="white">
<path d="M1285.68 947C1259.82 947 1236.51 943.509 1194.68 928.014C1170.31 918.821 1145.44 910.987 1120.2 904.55C1113.66 907.285 1107.15 909.761 1100.97 912.114C1097.46 913.445 1094.15 914.708 1090.94 915.966H1090.88C1078.82 920.631 1055.98 923.135 1019 923.863C989.524 924.427 958.037 923.688 935.049 923.147C927.599 922.972 921.164 922.819 916.263 922.751C909.495 922.65 901.791 922.678 893.619 922.712C853.656 922.859 803.918 923.039 775.105 909.795C743.907 895.946 711.454 885.122 678.19 877.47C669.127 875.101 659.759 872.647 649.822 869.912H649.777C601.41 856.728 554.006 840.234 507.902 820.546C466.579 802.79 428.121 783.246 379.433 758.501C372.022 754.741 364.382 750.862 356.512 746.865C296.633 716.546 233.579 692.954 168.505 676.522C103.985 660.013 100.143 656.683 33.5455 656.403H11.2796C8.28806 656.403 5.41905 655.214 3.30372 653.099C1.18838 650.983 0 648.114 0 645.122C0 642.13 1.18838 639.26 3.30372 637.145C5.41905 635.029 8.28806 633.841 11.2796 633.841H33.5342C101.989 634.115 107.682 637.668 174.004 654.626C240.699 671.468 305.322 695.647 366.692 726.723C374.588 730.724 382.239 734.608 389.646 738.376C486.008 787.341 544.177 816.897 655.845 848.162C665.636 850.858 674.931 853.289 683.921 855.636C718.475 863.595 752.182 874.868 784.574 889.298C808.825 900.449 857.812 900.274 893.563 900.144C901.836 900.116 909.653 900.088 916.613 900.19C921.609 900.257 928.095 900.415 935.607 900.59C958.392 901.126 989.603 901.859 1018.6 901.306C1054.03 900.63 1071.1 898.266 1079.3 896.061C1049.21 891.554 1018.88 888.934 988.469 888.215C950.979 887.135 913.58 883.934 876.452 878.626L876.091 878.564C875.262 878.412 857.981 874.187 841.028 869.15C830.673 866.076 822.135 863.205 815.649 860.622C804.719 856.278 799.378 852.787 796.615 848.213C795.619 846.609 794.982 844.809 794.746 842.936C794.51 841.063 794.682 839.161 795.25 837.36L797.083 831.602L802.897 829.938C808.765 828.956 814.72 828.594 820.663 828.86C858.278 828.507 895.823 825.533 933.024 819.96C983.219 811.499 1015.24 797.054 1025.57 778.22C1028.71 772.466 1029.96 765.869 1029.14 759.364C1027.81 750.18 1024.57 741.377 1019.63 733.519L1018.97 733C1017.01 731.771 1011.03 729.097 994.622 727.281C979.816 725.846 964.943 725.215 950.068 725.391C917.622 725.465 883.389 727.738 866.937 728.826L864.388 728.996C855.804 729.56 840.701 730.18 823.268 730.874C800.568 731.776 772.324 732.899 748.919 734.382C716.84 736.418 707.275 738.331 704.506 739.131L702.724 740.429C696.283 754.869 709.643 778.784 720.466 798.137C725.037 805.904 729.137 813.94 732.744 822.199L738.863 837.428L722.451 837.688C697.33 837.592 672.352 833.89 648.282 826.694C619.722 819.249 541.323 783.866 480.56 754.141C441.081 734.828 347.015 687.583 326.34 665.834L326.069 665.552L325.821 665.253C321.038 659.477 318.325 650.198 317.282 636.046C316.55 623.166 316.661 610.252 317.615 597.386C319.307 569.804 323.39 539.577 325.815 521.522C326.379 517.258 326.881 513.58 327.231 510.805L327.298 510.348C330.579 492.8 335.416 475.58 341.753 458.89C351.183 434.106 360.928 419.311 371.644 413.659C375.014 411.922 378.773 411.077 382.563 411.206C391.141 410.845 399.11 416.367 406.25 427.631C411.361 436.115 415.473 445.162 418.505 454.592C419.787 458.398 420.851 462.273 421.692 466.2C422.954 470.351 422.741 474.812 421.088 478.824C413.689 494.228 409.149 506.045 411.021 513.654C412.713 520.518 420.885 527.236 437.528 535.437C485.699 558.439 537.047 574.083 589.859 581.847C648.88 590.708 702.955 588.881 746.263 576.573L759.646 572.179C760.52 571.892 761.586 571.581 762.815 571.22C765.46 570.448 769.087 569.393 772.403 568.118C773.621 567.65 774.603 567.227 775.387 566.86C772.567 560.092 766.56 547.632 761.907 537.975C755.704 525.098 749.286 511.787 744.514 500.664C742.332 495.739 740.406 490.705 738.745 485.581C737.582 482.955 737.011 480.105 737.072 477.233C737.134 474.361 737.826 471.538 739.1 468.964C740.191 467.198 741.705 465.732 743.505 464.699C745.305 463.666 747.335 463.098 749.41 463.047C756.944 462.878 762.077 469.421 765.145 473.33C768.292 477.34 771.912 482.608 776.114 488.7C786.39 503.619 800.467 524.055 812.175 531.748C816.687 534.693 829.562 539.081 865.55 535.398C889.953 532.899 916.003 527.569 931.564 524.382L937.266 523.22H937.294L945.962 521.528C979.463 514.928 1021.16 506.716 1058.88 492.558C1076.69 486.173 1093.65 477.618 1109.37 467.086C1122.94 458.168 1134.2 446.165 1142.24 432.058C1147.79 422.082 1151.6 411.236 1153.52 399.981C1155.06 391.24 1154.26 382.247 1151.19 373.917C1146.89 363.781 1139.11 355.514 1129.25 350.604C1078.33 376.205 1024.94 396.579 969.909 411.414C931.372 421.691 892.269 429.71 852.798 435.432C815.159 441.072 774.473 445.488 724.775 449.403C676.162 453.326 627.308 453.273 578.703 449.245C530.017 445.148 481.808 436.601 434.68 423.711L434.364 423.62L428.724 421.889C419.396 418.702 405.291 413.885 397.993 401.905L397.497 401.092L397.141 400.207C394.404 393.281 393.944 385.662 395.827 378.457C397.704 371.503 400.903 364.976 405.252 359.234C415.053 346.758 426.722 335.869 439.846 326.954C463.301 310.795 487.981 296.491 513.66 284.171L515.814 283.099C564.88 258.642 612.729 239.318 663.397 218.86L668.118 216.953C667.28 212.622 667.485 208.154 668.715 203.918V203.879C670.52 197.206 675.827 188.401 690.891 184.351C698.704 182.552 706.691 181.621 714.708 181.576C717.105 181.486 720.274 181.362 721.786 181.165C727.29 177.78 749.652 161.107 760.656 152.906C766.092 148.856 770.384 145.652 772.64 144.028C811.259 115.094 851.614 88.5531 893.478 64.5534C901.009 60.2785 908.821 56.519 916.861 53.3007L917.075 53.2161C965.239 35.3358 1037.43 22.6955 1137.75 14.5788C1222.44 7.7313 1311.46 5.38486 1383.02 3.50658C1408.13 2.84664 1431.85 2.22055 1451.86 1.48729V2.05134C1469.39 -0.512553 1487.18 -0.673853 1504.75 1.5719L1505.15 1.62266L1505.55 1.70163C1524.84 5.84586 1543.42 12.7754 1560.72 22.2724C1577.33 31.1909 1593.24 41.3599 1608.32 52.6915C1624.81 64.8905 1640.47 78.1889 1655.18 92.4963L1655.53 92.863C1664.79 104.132 1672.36 116.683 1678.02 130.124C1684.59 144.891 1689.71 160.26 1693.3 176.015C1698.13 197.267 1700.76 218.96 1701.16 240.751C1702.15 285.361 1694.26 347.175 1680.07 406.107C1678.88 411.078 1677.65 415.949 1676.4 420.721C1676.72 429.785 1676.63 436.689 1676.4 439.391C1676.16 442.55 1675.95 445.799 1675.73 449.239C1675.09 468.536 1672.48 487.717 1667.95 506.485C1665.39 516.26 1661.35 525.589 1655.98 534.151C1650.31 543.089 1642.66 550.601 1633.62 556.104C1620.27 564.45 1604.28 567.479 1588.8 564.593C1579.01 562.58 1569.62 558.959 1561.01 553.876C1557.94 555.72 1551.95 559.601 1540.57 567.701C1529.18 575.8 1514.09 586.912 1495.63 600.788C1462.17 625.933 1424.97 654.637 1402.75 671.79C1394.07 678.485 1387.8 683.319 1384.7 685.688L1384.66 685.716L1384.09 686.145C1380.21 724.621 1373.02 762.692 1362.61 799.936C1356.3 823.459 1346.31 845.835 1333.01 866.234C1318.17 887.284 1300.63 898.345 1280.87 899.107C1273.66 899.643 1266.43 898.559 1259.69 895.935C1252.96 893.31 1246.9 889.212 1241.96 883.939C1228.34 869.443 1220.97 844.879 1219.42 808.848C1218.82 776.389 1220.45 743.928 1224.28 711.691C1229.25 669.586 1242.52 628.885 1263.31 591.938C1271.24 577.286 1280.95 563.678 1292.24 551.428C1303.91 539.369 1314.8 533.598 1324.66 534.275C1327.29 534.474 1329.84 535.201 1332.18 536.415C1334.51 537.629 1336.57 539.303 1338.24 541.337C1343.32 547.192 1346.6 556.51 1348.55 570.667C1350.14 583.688 1350.85 596.799 1350.7 609.914C1350.7 636.424 1348.7 664.768 1347.24 684.577C1348.97 683.449 1350.91 682.112 1353.07 680.629C1356.49 678.265 1359.8 675.919 1362.66 673.86C1362.84 671.931 1363 670.171 1363.14 668.592V668.564C1363.3 666.759 1363.49 664.756 1363.7 662.568C1366.66 635.272 1367.81 607.811 1367.16 580.363C1366.14 556.166 1362.03 524.81 1348.2 512.858C1344.71 509.841 1338.67 506.163 1326.57 509.096C1282.89 519.666 1251.09 552.629 1229.37 609.88C1210.02 660.853 1201.91 723.084 1195.39 773.087C1191.76 800.889 1188.62 824.895 1184.22 844.027C1181.96 853.801 1177.48 862.923 1171.13 870.69C1165.12 877.947 1158 884.213 1150.04 889.258C1166.71 894.16 1184.09 899.975 1202.56 906.845C1222.08 914.676 1242.46 920.167 1263.28 923.203C1280.21 924.763 1297.25 924.871 1314.2 923.524C1329.08 922.831 1345.96 922.047 1368.14 922.069L1746.25 918.303C1742.34 918.342 2081.16 930.358 1898.72 931.347C1900.84 933.463 1956.06 927.366 1956.06 930.358C1956.06 933.35 1958.18 934.449 1956.06 936.565C1953.94 938.68 1735.36 944.631 1732.36 944.631H1368.09C1346.43 944.631 1329.85 945.381 1315.22 946.058C1304.41 946.554 1294.88 947 1285.68 947ZM880.241 856.397C916.429 861.53 952.876 864.628 989.411 865.676C1020.58 866.424 1051.66 869.108 1082.5 873.713C1094.27 875.631 1106.12 877.989 1118.21 880.837C1139.12 871.412 1157.56 859.178 1162.2 838.979C1166.37 820.93 1169.43 797.403 1172.98 770.165C1179.65 718.995 1187.96 655.314 1208.24 601.871C1217.57 575.377 1231.83 550.89 1250.27 529.706C1269.05 508.634 1293.8 493.792 1321.23 487.166C1328.73 485.203 1336.57 484.948 1344.17 486.421C1351.12 487.89 1357.58 491.115 1362.92 495.79C1378.65 509.384 1387.35 535.505 1389.49 575.58C1389.86 570.504 1390.28 565.106 1390.7 559.398C1395.22 499.513 1402.73 399.417 1397.08 371.22C1395.39 364.88 1393.01 357.909 1390.69 351.163C1390.03 349.228 1389.34 347.214 1388.69 345.297C1388.55 344.902 1388.34 344.253 1388.05 343.396C1386.95 340.085 1384.66 333.204 1382.06 326.537C1380.81 323.321 1379.75 320.84 1378.87 318.933L1377.57 319.841C1364.93 328.686 1347.63 340.796 1331.92 336.024C1327.93 334.707 1324.31 332.466 1321.36 329.483C1318.4 326.499 1316.2 322.859 1314.92 318.86L1314.75 318.437L1314.62 318.002C1311.2 305.286 1311.71 291.831 1316.09 279.41C1316.59 277.566 1317.07 275.755 1317.52 273.945C1297.85 273.234 1266.02 272.506 1259.02 273.307C1252.63 276.421 1226.65 293.743 1213.9 302.226C1207.33 306.609 1201.65 310.388 1198.46 312.43L1198.2 312.593C1182.68 321.904 1167.31 330.628 1152.08 338.765C1152.78 339.325 1153.46 339.889 1154.13 340.457C1162.1 347.236 1168.3 355.86 1172.18 365.58C1176.72 377.591 1177.98 390.593 1175.83 403.253C1173.54 417.06 1168.9 430.375 1162.13 442.623C1152.42 459.885 1138.76 474.595 1122.26 485.542C1105 497.184 1086.36 506.619 1066.76 513.625C1027.28 528.432 984.589 536.847 950.276 543.605L941.676 545.297L936.036 546.425C920.059 549.696 893.32 555.167 867.795 557.779C855.458 559.196 843.025 559.594 830.623 558.969C819.78 558.836 809.15 555.937 799.739 550.548C795.662 547.79 791.867 544.637 788.409 541.134C798.239 561.857 799.688 566.268 799.243 570.803V570.871C797.968 584.408 780.581 589.484 769.076 592.868C768.072 593.162 767.124 593.432 766.611 593.607L752.602 598.199C706.18 611.437 648.727 613.496 586.453 604.149C531.343 596.022 477.764 579.671 427.506 555.641C418.414 551.491 409.92 546.139 402.251 539.73C395.807 534.367 391.191 527.133 389.043 519.029C387.335 511.052 387.741 502.767 390.221 494.995C392.689 486.832 395.836 478.891 399.629 471.254C398.117 464.43 395.935 457.772 393.115 451.377C390.852 444.784 387.162 438.771 382.309 433.768H381.779C377.831 436.199 370.663 446.177 362.79 466.877C357.022 482.105 352.59 497.805 349.542 513.8C349.181 516.654 348.696 520.292 348.132 524.517C345.757 542.223 341.781 571.852 340.106 598.571C339.217 610.411 339.091 622.295 339.728 634.151C339.636 639.835 340.765 645.473 343.039 650.683C356.078 663.797 413.689 696.326 490.435 733.869C562.359 769.054 631.115 798.909 653.928 804.854C670.205 809.485 686.852 812.704 703.682 814.477C702.712 812.723 701.708 810.929 700.699 809.113C693.315 796.814 687.109 783.845 682.161 770.38C679.764 763.471 678.49 756.224 678.388 748.912C678.301 741.214 680.324 733.64 684.236 727.01L685.415 725.042L693.311 719.288L694.349 718.815C699.097 716.654 708.724 714.302 746.697 711.888C770.514 710.365 799.22 709.226 822.27 708.306C839.562 707.618 854.49 707.026 862.781 706.462L865.341 706.293C882.029 705.165 916.748 702.88 949.938 702.807C1007.74 702.683 1024.36 709.406 1031.82 714.477L1032.14 714.697L1036.75 718.312L1037.82 720.067C1045.04 731.225 1049.72 743.836 1051.53 757.006C1052.83 768.076 1050.66 779.277 1045.32 789.061C1037.46 803.416 1022.49 815.413 1000.83 824.731C980.226 833.038 958.721 838.906 936.752 842.217C910.267 846.436 883.559 849.116 856.763 850.243C868.297 853.458 878.031 855.861 880.241 856.397ZM1321.84 557.057C1316.68 559.398 1312.09 562.849 1308.42 567.165C1298.49 578.025 1289.94 590.072 1282.96 603.033C1273.7 619.668 1265.99 637.115 1259.91 655.156C1253.33 674.215 1248.91 693.95 1246.73 713.992C1243.01 745.151 1241.42 776.526 1241.97 807.9C1243.25 837.879 1248.79 858.27 1258.4 868.513C1261.14 871.419 1264.51 873.657 1268.25 875.057C1271.99 876.456 1276 876.978 1279.98 876.584C1310.3 875.417 1329.89 830.767 1340.97 793.523C1349.32 764.085 1355.43 734.058 1359.25 703.698C1354.95 706.518 1351.29 708.837 1348.33 710.529C1346.28 711.735 1344.15 712.805 1341.95 713.732C1340.04 714.635 1337.95 715.103 1335.84 715.103C1333.72 715.103 1331.63 714.635 1329.72 713.732C1327.71 712.681 1326.05 711.078 1324.93 709.113C1323.81 707.147 1323.28 704.903 1323.39 702.643C1323.55 699.033 1323.96 693.354 1324.52 686.156C1325.99 666.223 1328.22 636.103 1328.16 608.583C1328.05 571.435 1323.6 560.097 1321.84 557.057ZM1389.38 621.483C1388.78 634.112 1387.84 645.782 1386.98 655.489L1388.97 653.955C1412.41 635.866 1451.65 605.593 1486.27 579.642C1505.5 565.23 1520.92 553.938 1532.11 546.081C1538.7 541.456 1543.82 538.02 1547.74 535.584C1551.67 532.461 1556.45 530.594 1561.45 530.225H1561.64C1565.25 530.685 1568.69 531.989 1571.7 534.033C1581.72 539.532 1600.38 549.775 1621.98 536.774C1633.26 529.333 1641.41 517.996 1644.86 504.928C1642.21 509.324 1638.72 513.157 1634.59 516.209H1634.56C1630.28 519.45 1624.98 521.062 1619.62 520.755C1616.97 520.507 1614.4 519.721 1612.07 518.446C1609.74 517.171 1607.69 515.432 1606.05 513.338C1600.28 506.394 1596.86 494.538 1595.58 477.092C1594.6 460.776 1595.05 444.405 1596.92 428.167C1598.55 412.898 1605.3 361.677 1623.53 343.661C1635.64 331.714 1645.97 333.937 1651.05 336.328C1657.97 339.577 1663.28 346.667 1667.24 357.988C1674.8 319.516 1678.61 280.4 1678.61 241.191C1678.25 221.24 1675.88 201.377 1671.53 181.904C1668.33 167.674 1663.79 153.782 1657.95 140.418C1653.12 128.836 1646.73 117.968 1638.96 108.115C1625 94.6345 1610.18 82.0785 1594.58 70.5267C1560.67 45.3815 1528.52 29.2497 1501.63 23.9138C1472.8 19.9247 1443.42 24.0255 1416.78 35.7588C1393.73 46.6068 1373.5 62.6462 1357.69 82.6199C1346.08 97.0135 1336.16 112.689 1328.11 129.34C1320.67 144.582 1314.54 160.433 1309.79 176.72C1305.97 189.461 1303.2 202.498 1301.53 215.696C1300.9 220.576 1300.63 225.497 1300.75 230.417C1302.14 230.643 1303.57 230.914 1305.09 231.19C1316.09 233.209 1329.77 235.702 1339.18 227.806C1350.34 218.414 1353.28 205.311 1358.2 183.601C1359.62 177.312 1361.23 170.183 1363.21 162.534C1367.63 143.97 1373.73 125.846 1381.43 108.386C1391.3 87.4425 1403.27 73.1269 1418.01 64.6211C1431.25 56.9839 1443.36 55.2184 1454.01 59.3868C1472.42 66.5953 1481.86 89.9863 1488.67 111.917C1488.94 112.768 1489.28 113.857 1489.69 115.16C1506.14 167.481 1506.53 181.684 1501.53 189.586L1499.23 193.201L1495.11 194.38C1485.06 197.251 1455.77 214.46 1434.38 227.027C1429.01 230.182 1423.94 233.155 1419.15 235.945C1410.67 240.243 1402.94 245.879 1396.25 252.635C1395.52 253.51 1395.02 254.556 1394.8 255.676C1394.58 256.797 1394.64 257.955 1394.99 259.043C1406.14 259.919 1417.36 259.097 1428.27 256.606C1448.84 252.884 1468.9 246.76 1488.05 238.359C1506.7 229.774 1514.75 221.776 1516.2 216.925C1518.2 174.622 1511 150.396 1501.06 116.937C1498.33 107.765 1495.51 98.2778 1492.6 87.4481C1490.97 82.1402 1490.54 76.5349 1491.34 71.04C1492.21 65.5021 1495.24 60.5351 1499.77 57.2264C1507.52 51.6311 1518.99 51.2588 1533.89 56.1266C1547.15 60.7837 1559.73 67.1572 1571.33 75.0842C1586.8 85.4476 1600.94 97.6737 1613.44 111.488C1628.34 128.161 1636.73 143.413 1638.39 156.82C1639.12 161.533 1638.78 166.349 1637.42 170.918C1636.05 175.487 1633.69 179.694 1630.49 183.235L1628.87 185.006L1589.96 202.006C1586.38 204.435 1582.61 206.57 1578.68 208.391C1576.62 209.217 1574.71 210.359 1573 211.775C1571.69 213.313 1570.71 215.102 1570.12 217.032C1572.4 232.611 1574.91 246.837 1577.33 260.622C1584.76 296.911 1588.66 333.835 1588.98 370.876V376.517C1588.96 378.53 1588.93 381.858 1588.91 386.066C1588.83 401.115 1588.7 426.3 1587.78 449.121C1587.26 461.936 1586.54 472.348 1585.64 480.059C1584.18 492.682 1582.37 498.498 1578.72 502.237C1567.94 513.315 1526.84 541.833 1485.7 570.087C1479.35 574.447 1473.85 578.209 1470.37 580.651C1466.73 583.201 1462.8 585.993 1458.64 588.943C1441.16 601.849 1423.03 613.863 1404.33 624.94L1393.93 630.705L1389.38 621.483ZM1381.66 292.699C1384.99 292.742 1388.2 293.99 1390.68 296.213C1392.47 297.813 1394.01 299.668 1395.26 301.718C1397.6 305.589 1399.61 309.645 1401.29 313.845C1404.86 322.368 1408.1 332.121 1409.49 336.289C1409.73 337.045 1409.92 337.609 1410.05 337.936L1410.08 338.032C1410.72 339.916 1411.37 341.817 1412.06 343.825C1414.56 351.078 1417.14 358.574 1419.02 365.822L1419.1 366.099L1419.15 366.375C1422.02 380.262 1422.43 408.363 1420.38 452.28C1418.68 488.757 1415.66 528.86 1413.24 561.084C1412.34 572.929 1411.44 584.932 1410.8 594.504C1422.17 587.087 1434.34 578.446 1445.55 570.487C1449.74 567.514 1453.69 564.7 1457.39 562.1C1460.97 559.595 1466.23 555.991 1472.88 551.422C1497.93 534.224 1549.25 498.966 1561.51 487.42C1562.28 484.814 1564.2 475.434 1565.34 444.406C1566.12 422.972 1566.25 399.75 1566.32 385.88C1566.32 381.672 1566.36 378.333 1566.4 376.207V370.696C1566.07 335.012 1562.26 299.446 1555.03 264.503C1552.44 249.781 1549.76 234.557 1547.33 217.596L1546.97 215.109L1547.71 212.706C1549.33 206.424 1552.49 200.643 1556.89 195.881C1560.34 192.606 1564.36 189.977 1568.74 188.119C1571.89 186.681 1574.91 184.96 1577.76 182.975L1578.71 182.242L1614.9 166.449C1616 164.341 1616.36 161.926 1615.92 159.59C1614.86 151.078 1607.98 139.335 1596.53 126.525C1585.33 114.145 1572.66 103.188 1558.78 93.9008C1549.25 87.4113 1538.97 82.0864 1528.17 78.0398C1523.54 75.9936 1518.47 75.0995 1513.42 75.4339C1513.36 77.5028 1513.66 79.5657 1514.29 81.5369C1517.17 92.1128 1519.93 101.47 1522.63 110.523C1532.88 145.049 1540.98 172.32 1538.63 219.08L1538.59 219.886L1538.43 220.676C1536.18 229.71 1530.86 237.683 1523.39 243.238C1515.46 249.547 1506.73 254.803 1497.45 258.873C1476.62 268.044 1454.78 274.734 1432.39 278.807C1421.7 280.962 1410.82 282.047 1399.91 282.045C1394.76 281.932 1379.05 281.582 1374.77 270.002C1372.55 265.054 1371.68 259.603 1372.26 254.209C1372.83 248.814 1374.84 243.671 1378.06 239.307C1383.99 231.229 1394.25 224.331 1407.82 216.451C1412.57 213.695 1417.61 210.743 1422.95 207.596C1441.96 195.834 1461.57 185.074 1481.71 175.361C1480.85 167.991 1479.41 160.7 1477.42 153.554C1474.29 141.337 1470.33 128.736 1468.2 121.968C1467.78 120.614 1467.42 119.486 1467.16 118.623C1464.45 109.023 1460.68 99.7533 1455.93 90.9847C1453.77 86.4804 1450.23 82.7819 1445.82 80.4257C1441.87 78.8802 1436.33 80.1493 1429.33 84.1936C1406.15 97.5728 1394.37 132.482 1385.09 168.237C1383.19 175.535 1381.7 182.18 1380.24 188.599C1374.92 212.187 1370.71 230.818 1353.74 245.094C1349.98 248.27 1345.7 250.788 1341.1 252.539L1342.82 252.635L1342 264.057C1341.34 271.246 1339.96 278.352 1337.91 285.271C1334.74 293.509 1334.12 302.51 1336.13 311.104C1336.9 312.971 1337.82 314.235 1338.49 314.449C1338.93 314.584 1341.46 315.086 1348.04 311.843C1353.83 308.759 1359.38 305.259 1364.65 301.369C1368.33 298.636 1372.2 296.161 1376.22 293.963L1376.92 293.613L1377.67 293.365C1378.96 292.932 1380.3 292.707 1381.66 292.699ZM1642.07 357.52C1641.1 358.181 1640.2 358.936 1639.39 359.776C1635.31 363.803 1629.17 376.443 1624.19 399.823C1619.88 420.493 1617.68 441.545 1617.61 462.658C1617.52 471.264 1618.23 479.86 1619.7 488.339C1620.21 491.383 1621.1 494.353 1622.33 497.183C1624.24 495.362 1629.76 488.723 1638.03 467.503C1644.15 451.377 1649.38 434.932 1653.72 418.239C1653.41 411.369 1652.84 403.371 1651.91 395.288C1648.82 368.434 1643.93 359.883 1642.07 357.52ZM440.793 402C486.541 414.501 533.336 422.792 580.593 426.768C627.978 430.693 675.605 430.742 722.999 426.914C772.178 423.039 812.367 418.657 849.476 413.123C888.084 407.528 926.332 399.686 964.026 389.637C1009.9 377.275 1054.61 360.935 1097.64 340.801C1091.82 339.673 1085.94 338.511 1081.12 337.225C1078.39 336.551 1075.72 335.641 1073.15 334.507C1070.81 333.641 1068.75 332.166 1067.17 330.234C1065.6 328.302 1064.57 325.983 1064.19 323.519C1063.87 320.587 1064.54 317.634 1066.09 315.125C1067.64 312.615 1069.98 310.693 1072.74 309.66C1105.45 294.03 1168.5 262.794 1204.65 242.398C1201.74 242.274 1198.51 242.161 1194.91 242.054L1191.95 241.958C1172.13 241.123 1160.93 240.576 1151.9 240.13C1137.59 239.425 1128.12 238.963 1097.68 237.981C1083.72 237.53 1032.62 236.453 973.445 235.206C924.249 234.168 868.488 232.995 825.682 231.997C802.367 231.432 785.104 231.015 772.916 230.66C766.211 230.462 761.073 230.293 757.57 230.146C755.664 230.067 754.237 229.994 753.211 229.932C751.138 229.965 749.092 229.464 747.269 228.476C745.446 227.488 743.909 226.047 742.805 224.292L739.484 218.753L742.58 213.112C745.129 208.442 751.107 202.519 838.033 142.24C844.835 137.524 850.21 133.779 852.641 132.087C853.047 131.794 896.349 101.222 911.909 93.8106C946.876 77.1486 997.121 61.9363 1061.29 48.5965C1075.12 45.7236 1089.59 42.9335 1104.72 40.2261C1034.51 47.1469 969.926 57.7115 925.027 74.3566C917.933 77.2133 911.039 80.543 904.391 84.3233C863.332 107.887 823.75 133.936 785.865 162.325C783.734 163.865 779.284 167.182 774.135 171.023C744.559 193.066 734.898 199.976 731.08 201.82H731.047C726.095 203.604 720.839 204.388 715.582 204.127C709.252 204.15 702.942 204.827 696.751 206.146C695.059 206.603 691.032 207.872 690.502 209.751C690.248 210.554 690.132 211.395 690.158 212.238C690.254 212.396 690.491 212.729 690.671 212.971C692.056 214.629 693.027 216.592 693.504 218.698C693.98 220.805 693.949 222.995 693.412 225.087C691.489 231.856 685.133 234.416 679.521 236.684L671.834 239.775C621.589 260.08 574.13 279.224 525.881 303.275L523.721 304.353C499.129 316.138 475.488 329.812 453.009 345.252C441.839 352.777 431.879 361.959 423.474 372.484C416.142 382.592 416.881 388.277 417.704 390.877C421.144 395.435 429.858 398.441 435.802 400.466L440.793 402ZM1104.78 319.193C1111 320.228 1117.16 321.64 1123.22 323.423C1125.13 324.077 1127 324.769 1128.83 325.499C1147.88 315.69 1167.04 304.99 1186.47 293.348C1189.51 291.402 1195.03 287.708 1201.41 283.466C1230.74 263.916 1245.72 254.22 1251.54 251.981C1253.91 251.067 1256.59 250.035 1286.63 250.559C1284.33 249.207 1282.45 247.242 1281.2 244.885C1279.44 241.659 1277.25 235.494 1278.52 219.249C1279.69 206.492 1281.9 193.853 1285.13 181.458C1293.68 147.314 1307.98 114.877 1327.43 85.536C1342.21 63.2478 1361.12 43.9961 1383.14 28.821C1345.35 31.8161 1295.51 36.3623 1241.85 42.832C1175.3 50.8527 1116.09 60.2216 1065.8 70.679C1003.44 83.6521 954.924 98.2722 921.604 114.156C910.888 119.232 877.738 141.873 865.714 150.447C863.164 152.257 858.015 155.828 850.886 160.774C836.905 170.47 815.773 185.124 797.432 198.193C791.917 202.142 787.241 205.498 783.277 208.386C826.528 209.542 908.96 211.279 973.936 212.65C1033.15 213.896 1084.33 214.979 1098.42 215.43C1129.05 216.418 1138.58 216.886 1153.02 217.596C1162 218.036 1173.18 218.583 1192.89 219.413L1195.61 219.497C1200.98 219.655 1210.98 219.954 1220.02 220.654C1224.28 220.937 1228.52 221.434 1232.73 222.143C1235.75 222.31 1238.66 223.304 1241.15 225.016C1243.63 226.729 1245.6 229.093 1246.83 231.85C1247.6 234.276 1247.59 236.881 1246.8 239.3C1246.02 241.72 1244.5 243.834 1242.45 245.348C1222.71 260.746 1143.94 300.038 1104.78 319.193Z"/>
</mask>
<path d="M1285.68 947C1259.82 947 1236.51 943.509 1194.68 928.014C1170.31 918.821 1145.44 910.987 1120.2 904.55C1113.66 907.285 1107.15 909.761 1100.97 912.114C1097.46 913.445 1094.15 914.708 1090.94 915.966H1090.88C1078.82 920.631 1055.98 923.135 1019 923.863C989.524 924.427 958.037 923.688 935.049 923.147C927.599 922.972 921.164 922.819 916.263 922.751C909.495 922.65 901.791 922.678 893.619 922.712C853.656 922.859 803.918 923.039 775.105 909.795C743.907 895.946 711.454 885.122 678.19 877.47C669.127 875.101 659.759 872.647 649.822 869.912H649.777C601.41 856.728 554.006 840.234 507.902 820.546C466.579 802.79 428.121 783.246 379.433 758.501C372.022 754.741 364.382 750.862 356.512 746.865C296.633 716.546 233.579 692.954 168.505 676.522C103.985 660.013 100.143 656.683 33.5455 656.403H11.2796C8.28806 656.403 5.41905 655.214 3.30372 653.099C1.18838 650.983 0 648.114 0 645.122C0 642.13 1.18838 639.26 3.30372 637.145C5.41905 635.029 8.28806 633.841 11.2796 633.841H33.5342C101.989 634.115 107.682 637.668 174.004 654.626C240.699 671.468 305.322 695.647 366.692 726.723C374.588 730.724 382.239 734.608 389.646 738.376C486.008 787.341 544.177 816.897 655.845 848.162C665.636 850.858 674.931 853.289 683.921 855.636C718.475 863.595 752.182 874.868 784.574 889.298C808.825 900.449 857.812 900.274 893.563 900.144C901.836 900.116 909.653 900.088 916.613 900.19C921.609 900.257 928.095 900.415 935.607 900.59C958.392 901.126 989.603 901.859 1018.6 901.306C1054.03 900.63 1071.1 898.266 1079.3 896.061C1049.21 891.554 1018.88 888.934 988.469 888.215C950.979 887.135 913.58 883.934 876.452 878.626L876.091 878.564C875.262 878.412 857.981 874.187 841.028 869.15C830.673 866.076 822.135 863.205 815.649 860.622C804.719 856.278 799.378 852.787 796.615 848.213C795.619 846.609 794.982 844.809 794.746 842.936C794.51 841.063 794.682 839.161 795.25 837.36L797.083 831.602L802.897 829.938C808.765 828.956 814.72 828.594 820.663 828.86C858.278 828.507 895.823 825.533 933.024 819.96C983.219 811.499 1015.24 797.054 1025.57 778.22C1028.71 772.466 1029.96 765.869 1029.14 759.364C1027.81 750.18 1024.57 741.377 1019.63 733.519L1018.97 733C1017.01 731.771 1011.03 729.097 994.622 727.281C979.816 725.846 964.943 725.215 950.068 725.391C917.622 725.465 883.389 727.738 866.937 728.826L864.388 728.996C855.804 729.56 840.701 730.18 823.268 730.874C800.568 731.776 772.324 732.899 748.919 734.382C716.84 736.418 707.275 738.331 704.506 739.131L702.724 740.429C696.283 754.869 709.643 778.784 720.466 798.137C725.037 805.904 729.137 813.94 732.744 822.199L738.863 837.428L722.451 837.688C697.33 837.592 672.352 833.89 648.282 826.694C619.722 819.249 541.323 783.866 480.56 754.141C441.081 734.828 347.015 687.583 326.34 665.834L326.069 665.552L325.821 665.253C321.038 659.477 318.325 650.198 317.282 636.046C316.55 623.166 316.661 610.252 317.615 597.386C319.307 569.804 323.39 539.577 325.815 521.522C326.379 517.258 326.881 513.58 327.231 510.805L327.298 510.348C330.579 492.8 335.416 475.58 341.753 458.89C351.183 434.106 360.928 419.311 371.644 413.659C375.014 411.922 378.773 411.077 382.563 411.206C391.141 410.845 399.11 416.367 406.25 427.631C411.361 436.115 415.473 445.162 418.505 454.592C419.787 458.398 420.851 462.273 421.692 466.2C422.954 470.351 422.741 474.812 421.088 478.824C413.689 494.228 409.149 506.045 411.021 513.654C412.713 520.518 420.885 527.236 437.528 535.437C485.699 558.439 537.047 574.083 589.859 581.847C648.88 590.708 702.955 588.881 746.263 576.573L759.646 572.179C760.52 571.892 761.586 571.581 762.815 571.22C765.46 570.448 769.087 569.393 772.403 568.118C773.621 567.65 774.603 567.227 775.387 566.86C772.567 560.092 766.56 547.632 761.907 537.975C755.704 525.098 749.286 511.787 744.514 500.664C742.332 495.739 740.406 490.705 738.745 485.581C737.582 482.955 737.011 480.105 737.072 477.233C737.134 474.361 737.826 471.538 739.1 468.964C740.191 467.198 741.705 465.732 743.505 464.699C745.305 463.666 747.335 463.098 749.41 463.047C756.944 462.878 762.077 469.421 765.145 473.33C768.292 477.34 771.912 482.608 776.114 488.7C786.39 503.619 800.467 524.055 812.175 531.748C816.687 534.693 829.562 539.081 865.55 535.398C889.953 532.899 916.003 527.569 931.564 524.382L937.266 523.22H937.294L945.962 521.528C979.463 514.928 1021.16 506.716 1058.88 492.558C1076.69 486.173 1093.65 477.618 1109.37 467.086C1122.94 458.168 1134.2 446.165 1142.24 432.058C1147.79 422.082 1151.6 411.236 1153.52 399.981C1155.06 391.24 1154.26 382.247 1151.19 373.917C1146.89 363.781 1139.11 355.514 1129.25 350.604C1078.33 376.205 1024.94 396.579 969.909 411.414C931.372 421.691 892.269 429.71 852.798 435.432C815.159 441.072 774.473 445.488 724.775 449.403C676.162 453.326 627.308 453.273 578.703 449.245C530.017 445.148 481.808 436.601 434.68 423.711L434.364 423.62L428.724 421.889C419.396 418.702 405.291 413.885 397.993 401.905L397.497 401.092L397.141 400.207C394.404 393.281 393.944 385.662 395.827 378.457C397.704 371.503 400.903 364.976 405.252 359.234C415.053 346.758 426.722 335.869 439.846 326.954C463.301 310.795 487.981 296.491 513.66 284.171L515.814 283.099C564.88 258.642 612.729 239.318 663.397 218.86L668.118 216.953C667.28 212.622 667.485 208.154 668.715 203.918V203.879C670.52 197.206 675.827 188.401 690.891 184.351C698.704 182.552 706.691 181.621 714.708 181.576C717.105 181.486 720.274 181.362 721.786 181.165C727.29 177.78 749.652 161.107 760.656 152.906C766.092 148.856 770.384 145.652 772.64 144.028C811.259 115.094 851.614 88.5531 893.478 64.5534C901.009 60.2785 908.821 56.519 916.861 53.3007L917.075 53.2161C965.239 35.3358 1037.43 22.6955 1137.75 14.5788C1222.44 7.7313 1311.46 5.38486 1383.02 3.50658C1408.13 2.84664 1431.85 2.22055 1451.86 1.48729V2.05134C1469.39 -0.512553 1487.18 -0.673853 1504.75 1.5719L1505.15 1.62266L1505.55 1.70163C1524.84 5.84586 1543.42 12.7754 1560.72 22.2724C1577.33 31.1909 1593.24 41.3599 1608.32 52.6915C1624.81 64.8905 1640.47 78.1889 1655.18 92.4963L1655.53 92.863C1664.79 104.132 1672.36 116.683 1678.02 130.124C1684.59 144.891 1689.71 160.26 1693.3 176.015C1698.13 197.267 1700.76 218.96 1701.16 240.751C1702.15 285.361 1694.26 347.175 1680.07 406.107C1678.88 411.078 1677.65 415.949 1676.4 420.721C1676.72 429.785 1676.63 436.689 1676.4 439.391C1676.16 442.55 1675.95 445.799 1675.73 449.239C1675.09 468.536 1672.48 487.717 1667.95 506.485C1665.39 516.26 1661.35 525.589 1655.98 534.151C1650.31 543.089 1642.66 550.601 1633.62 556.104C1620.27 564.45 1604.28 567.479 1588.8 564.593C1579.01 562.58 1569.62 558.959 1561.01 553.876C1557.94 555.72 1551.95 559.601 1540.57 567.701C1529.18 575.8 1514.09 586.912 1495.63 600.788C1462.17 625.933 1424.97 654.637 1402.75 671.79C1394.07 678.485 1387.8 683.319 1384.7 685.688L1384.66 685.716L1384.09 686.145C1380.21 724.621 1373.02 762.692 1362.61 799.936C1356.3 823.459 1346.31 845.835 1333.01 866.234C1318.17 887.284 1300.63 898.345 1280.87 899.107C1273.66 899.643 1266.43 898.559 1259.69 895.935C1252.96 893.31 1246.9 889.212 1241.96 883.939C1228.34 869.443 1220.97 844.879 1219.42 808.848C1218.82 776.389 1220.45 743.928 1224.28 711.691C1229.25 669.586 1242.52 628.885 1263.31 591.938C1271.24 577.286 1280.95 563.678 1292.24 551.428C1303.91 539.369 1314.8 533.598 1324.66 534.275C1327.29 534.474 1329.84 535.201 1332.18 536.415C1334.51 537.629 1336.57 539.303 1338.24 541.337C1343.32 547.192 1346.6 556.51 1348.55 570.667C1350.14 583.688 1350.85 596.799 1350.7 609.914C1350.7 636.424 1348.7 664.768 1347.24 684.577C1348.97 683.449 1350.91 682.112 1353.07 680.629C1356.49 678.265 1359.8 675.919 1362.66 673.86C1362.84 671.931 1363 670.171 1363.14 668.592V668.564C1363.3 666.759 1363.49 664.756 1363.7 662.568C1366.66 635.272 1367.81 607.811 1367.16 580.363C1366.14 556.166 1362.03 524.81 1348.2 512.858C1344.71 509.841 1338.67 506.163 1326.57 509.096C1282.89 519.666 1251.09 552.629 1229.37 609.88C1210.02 660.853 1201.91 723.084 1195.39 773.087C1191.76 800.889 1188.62 824.895 1184.22 844.027C1181.96 853.801 1177.48 862.923 1171.13 870.69C1165.12 877.947 1158 884.213 1150.04 889.258C1166.71 894.16 1184.09 899.975 1202.56 906.845C1222.08 914.676 1242.46 920.167 1263.28 923.203C1280.21 924.763 1297.25 924.871 1314.2 923.524C1329.08 922.831 1345.96 922.047 1368.14 922.069L1746.25 918.303C1742.34 918.342 2081.16 930.358 1898.72 931.347C1900.84 933.463 1956.06 927.366 1956.06 930.358C1956.06 933.35 1958.18 934.449 1956.06 936.565C1953.94 938.68 1735.36 944.631 1732.36 944.631H1368.09C1346.43 944.631 1329.85 945.381 1315.22 946.058C1304.41 946.554 1294.88 947 1285.68 947ZM880.241 856.397C916.429 861.53 952.876 864.628 989.411 865.676C1020.58 866.424 1051.66 869.108 1082.5 873.713C1094.27 875.631 1106.12 877.989 1118.21 880.837C1139.12 871.412 1157.56 859.178 1162.2 838.979C1166.37 820.93 1169.43 797.403 1172.98 770.165C1179.65 718.995 1187.96 655.314 1208.24 601.871C1217.57 575.377 1231.83 550.89 1250.27 529.706C1269.05 508.634 1293.8 493.792 1321.23 487.166C1328.73 485.203 1336.57 484.948 1344.17 486.421C1351.12 487.89 1357.58 491.115 1362.92 495.79C1378.65 509.384 1387.35 535.505 1389.49 575.58C1389.86 570.504 1390.28 565.106 1390.7 559.398C1395.22 499.513 1402.73 399.417 1397.08 371.22C1395.39 364.88 1393.01 357.909 1390.69 351.163C1390.03 349.228 1389.34 347.214 1388.69 345.297C1388.55 344.902 1388.34 344.253 1388.05 343.396C1386.95 340.085 1384.66 333.204 1382.06 326.537C1380.81 323.321 1379.75 320.84 1378.87 318.933L1377.57 319.841C1364.93 328.686 1347.63 340.796 1331.92 336.024C1327.93 334.707 1324.31 332.466 1321.36 329.483C1318.4 326.499 1316.2 322.859 1314.92 318.86L1314.75 318.437L1314.62 318.002C1311.2 305.286 1311.71 291.831 1316.09 279.41C1316.59 277.566 1317.07 275.755 1317.52 273.945C1297.85 273.234 1266.02 272.506 1259.02 273.307C1252.63 276.421 1226.65 293.743 1213.9 302.226C1207.33 306.609 1201.65 310.388 1198.46 312.43L1198.2 312.593C1182.68 321.904 1167.31 330.628 1152.08 338.765C1152.78 339.325 1153.46 339.889 1154.13 340.457C1162.1 347.236 1168.3 355.86 1172.18 365.58C1176.72 377.591 1177.98 390.593 1175.83 403.253C1173.54 417.06 1168.9 430.375 1162.13 442.623C1152.42 459.885 1138.76 474.595 1122.26 485.542C1105 497.184 1086.36 506.619 1066.76 513.625C1027.28 528.432 984.589 536.847 950.276 543.605L941.676 545.297L936.036 546.425C920.059 549.696 893.32 555.167 867.795 557.779C855.458 559.196 843.025 559.594 830.623 558.969C819.78 558.836 809.15 555.937 799.739 550.548C795.662 547.79 791.867 544.637 788.409 541.134C798.239 561.857 799.688 566.268 799.243 570.803V570.871C797.968 584.408 780.581 589.484 769.076 592.868C768.072 593.162 767.124 593.432 766.611 593.607L752.602 598.199C706.18 611.437 648.727 613.496 586.453 604.149C531.343 596.022 477.764 579.671 427.506 555.641C418.414 551.491 409.92 546.139 402.251 539.73C395.807 534.367 391.191 527.133 389.043 519.029C387.335 511.052 387.741 502.767 390.221 494.995C392.689 486.832 395.836 478.891 399.629 471.254C398.117 464.43 395.935 457.772 393.115 451.377C390.852 444.784 387.162 438.771 382.309 433.768H381.779C377.831 436.199 370.663 446.177 362.79 466.877C357.022 482.105 352.59 497.805 349.542 513.8C349.181 516.654 348.696 520.292 348.132 524.517C345.757 542.223 341.781 571.852 340.106 598.571C339.217 610.411 339.091 622.295 339.728 634.151C339.636 639.835 340.765 645.473 343.039 650.683C356.078 663.797 413.689 696.326 490.435 733.869C562.359 769.054 631.115 798.909 653.928 804.854C670.205 809.485 686.852 812.704 703.682 814.477C702.712 812.723 701.708 810.929 700.699 809.113C693.315 796.814 687.109 783.845 682.161 770.38C679.764 763.471 678.49 756.224 678.388 748.912C678.301 741.214 680.324 733.64 684.236 727.01L685.415 725.042L693.311 719.288L694.349 718.815C699.097 716.654 708.724 714.302 746.697 711.888C770.514 710.365 799.22 709.226 822.27 708.306C839.562 707.618 854.49 707.026 862.781 706.462L865.341 706.293C882.029 705.165 916.748 702.88 949.938 702.807C1007.74 702.683 1024.36 709.406 1031.82 714.477L1032.14 714.697L1036.75 718.312L1037.82 720.067C1045.04 731.225 1049.72 743.836 1051.53 757.006C1052.83 768.076 1050.66 779.277 1045.32 789.061C1037.46 803.416 1022.49 815.413 1000.83 824.731C980.226 833.038 958.721 838.906 936.752 842.217C910.267 846.436 883.559 849.116 856.763 850.243C868.297 853.458 878.031 855.861 880.241 856.397ZM1321.84 557.057C1316.68 559.398 1312.09 562.849 1308.42 567.165C1298.49 578.025 1289.94 590.072 1282.96 603.033C1273.7 619.668 1265.99 637.115 1259.91 655.156C1253.33 674.215 1248.91 693.95 1246.73 713.992C1243.01 745.151 1241.42 776.526 1241.97 807.9C1243.25 837.879 1248.79 858.27 1258.4 868.513C1261.14 871.419 1264.51 873.657 1268.25 875.057C1271.99 876.456 1276 876.978 1279.98 876.584C1310.3 875.417 1329.89 830.767 1340.97 793.523C1349.32 764.085 1355.43 734.058 1359.25 703.698C1354.95 706.518 1351.29 708.837 1348.33 710.529C1346.28 711.735 1344.15 712.805 1341.95 713.732C1340.04 714.635 1337.95 715.103 1335.84 715.103C1333.72 715.103 1331.63 714.635 1329.72 713.732C1327.71 712.681 1326.05 711.078 1324.93 709.113C1323.81 707.147 1323.28 704.903 1323.39 702.643C1323.55 699.033 1323.96 693.354 1324.52 686.156C1325.99 666.223 1328.22 636.103 1328.16 608.583C1328.05 571.435 1323.6 560.097 1321.84 557.057ZM1389.38 621.483C1388.78 634.112 1387.84 645.782 1386.98 655.489L1388.97 653.955C1412.41 635.866 1451.65 605.593 1486.27 579.642C1505.5 565.23 1520.92 553.938 1532.11 546.081C1538.7 541.456 1543.82 538.02 1547.74 535.584C1551.67 532.461 1556.45 530.594 1561.45 530.225H1561.64C1565.25 530.685 1568.69 531.989 1571.7 534.033C1581.72 539.532 1600.38 549.775 1621.98 536.774C1633.26 529.333 1641.41 517.996 1644.86 504.928C1642.21 509.324 1638.72 513.157 1634.59 516.209H1634.56C1630.28 519.45 1624.98 521.062 1619.62 520.755C1616.97 520.507 1614.4 519.721 1612.07 518.446C1609.74 517.171 1607.69 515.432 1606.05 513.338C1600.28 506.394 1596.86 494.538 1595.58 477.092C1594.6 460.776 1595.05 444.405 1596.92 428.167C1598.55 412.898 1605.3 361.677 1623.53 343.661C1635.64 331.714 1645.97 333.937 1651.05 336.328C1657.97 339.577 1663.28 346.667 1667.24 357.988C1674.8 319.516 1678.61 280.4 1678.61 241.191C1678.25 221.24 1675.88 201.377 1671.53 181.904C1668.33 167.674 1663.79 153.782 1657.95 140.418C1653.12 128.836 1646.73 117.968 1638.96 108.115C1625 94.6345 1610.18 82.0785 1594.58 70.5267C1560.67 45.3815 1528.52 29.2497 1501.63 23.9138C1472.8 19.9247 1443.42 24.0255 1416.78 35.7588C1393.73 46.6068 1373.5 62.6462 1357.69 82.6199C1346.08 97.0135 1336.16 112.689 1328.11 129.34C1320.67 144.582 1314.54 160.433 1309.79 176.72C1305.97 189.461 1303.2 202.498 1301.53 215.696C1300.9 220.576 1300.63 225.497 1300.75 230.417C1302.14 230.643 1303.57 230.914 1305.09 231.19C1316.09 233.209 1329.77 235.702 1339.18 227.806C1350.34 218.414 1353.28 205.311 1358.2 183.601C1359.62 177.312 1361.23 170.183 1363.21 162.534C1367.63 143.97 1373.73 125.846 1381.43 108.386C1391.3 87.4425 1403.27 73.1269 1418.01 64.6211C1431.25 56.9839 1443.36 55.2184 1454.01 59.3868C1472.42 66.5953 1481.86 89.9863 1488.67 111.917C1488.94 112.768 1489.28 113.857 1489.69 115.16C1506.14 167.481 1506.53 181.684 1501.53 189.586L1499.23 193.201L1495.11 194.38C1485.06 197.251 1455.77 214.46 1434.38 227.027C1429.01 230.182 1423.94 233.155 1419.15 235.945C1410.67 240.243 1402.94 245.879 1396.25 252.635C1395.52 253.51 1395.02 254.556 1394.8 255.676C1394.58 256.797 1394.64 257.955 1394.99 259.043C1406.14 259.919 1417.36 259.097 1428.27 256.606C1448.84 252.884 1468.9 246.76 1488.05 238.359C1506.7 229.774 1514.75 221.776 1516.2 216.925C1518.2 174.622 1511 150.396 1501.06 116.937C1498.33 107.765 1495.51 98.2778 1492.6 87.4481C1490.97 82.1402 1490.54 76.5349 1491.34 71.04C1492.21 65.5021 1495.24 60.5351 1499.77 57.2264C1507.52 51.6311 1518.99 51.2588 1533.89 56.1266C1547.15 60.7837 1559.73 67.1572 1571.33 75.0842C1586.8 85.4476 1600.94 97.6737 1613.44 111.488C1628.34 128.161 1636.73 143.413 1638.39 156.82C1639.12 161.533 1638.78 166.349 1637.42 170.918C1636.05 175.487 1633.69 179.694 1630.49 183.235L1628.87 185.006L1589.96 202.006C1586.38 204.435 1582.61 206.57 1578.68 208.391C1576.62 209.217 1574.71 210.359 1573 211.775C1571.69 213.313 1570.71 215.102 1570.12 217.032C1572.4 232.611 1574.91 246.837 1577.33 260.622C1584.76 296.911 1588.66 333.835 1588.98 370.876V376.517C1588.96 378.53 1588.93 381.858 1588.91 386.066C1588.83 401.115 1588.7 426.3 1587.78 449.121C1587.26 461.936 1586.54 472.348 1585.64 480.059C1584.18 492.682 1582.37 498.498 1578.72 502.237C1567.94 513.315 1526.84 541.833 1485.7 570.087C1479.35 574.447 1473.85 578.209 1470.37 580.651C1466.73 583.201 1462.8 585.993 1458.64 588.943C1441.16 601.849 1423.03 613.863 1404.33 624.94L1393.93 630.705L1389.38 621.483ZM1381.66 292.699C1384.99 292.742 1388.2 293.99 1390.68 296.213C1392.47 297.813 1394.01 299.668 1395.26 301.718C1397.6 305.589 1399.61 309.645 1401.29 313.845C1404.86 322.368 1408.1 332.121 1409.49 336.289C1409.73 337.045 1409.92 337.609 1410.05 337.936L1410.08 338.032C1410.72 339.916 1411.37 341.817 1412.06 343.825C1414.56 351.078 1417.14 358.574 1419.02 365.822L1419.1 366.099L1419.15 366.375C1422.02 380.262 1422.43 408.363 1420.38 452.28C1418.68 488.757 1415.66 528.86 1413.24 561.084C1412.34 572.929 1411.44 584.932 1410.8 594.504C1422.17 587.087 1434.34 578.446 1445.55 570.487C1449.74 567.514 1453.69 564.7 1457.39 562.1C1460.97 559.595 1466.23 555.991 1472.88 551.422C1497.93 534.224 1549.25 498.966 1561.51 487.42C1562.28 484.814 1564.2 475.434 1565.34 444.406C1566.12 422.972 1566.25 399.75 1566.32 385.88C1566.32 381.672 1566.36 378.333 1566.4 376.207V370.696C1566.07 335.012 1562.26 299.446 1555.03 264.503C1552.44 249.781 1549.76 234.557 1547.33 217.596L1546.97 215.109L1547.71 212.706C1549.33 206.424 1552.49 200.643 1556.89 195.881C1560.34 192.606 1564.36 189.977 1568.74 188.119C1571.89 186.681 1574.91 184.96 1577.76 182.975L1578.71 182.242L1614.9 166.449C1616 164.341 1616.36 161.926 1615.92 159.59C1614.86 151.078 1607.98 139.335 1596.53 126.525C1585.33 114.145 1572.66 103.188 1558.78 93.9008C1549.25 87.4113 1538.97 82.0864 1528.17 78.0398C1523.54 75.9936 1518.47 75.0995 1513.42 75.4339C1513.36 77.5028 1513.66 79.5657 1514.29 81.5369C1517.17 92.1128 1519.93 101.47 1522.63 110.523C1532.88 145.049 1540.98 172.32 1538.63 219.08L1538.59 219.886L1538.43 220.676C1536.18 229.71 1530.86 237.683 1523.39 243.238C1515.46 249.547 1506.73 254.803 1497.45 258.873C1476.62 268.044 1454.78 274.734 1432.39 278.807C1421.7 280.962 1410.82 282.047 1399.91 282.045C1394.76 281.932 1379.05 281.582 1374.77 270.002C1372.55 265.054 1371.68 259.603 1372.26 254.209C1372.83 248.814 1374.84 243.671 1378.06 239.307C1383.99 231.229 1394.25 224.331 1407.82 216.451C1412.57 213.695 1417.61 210.743 1422.95 207.596C1441.96 195.834 1461.57 185.074 1481.71 175.361C1480.85 167.991 1479.41 160.7 1477.42 153.554C1474.29 141.337 1470.33 128.736 1468.2 121.968C1467.78 120.614 1467.42 119.486 1467.16 118.623C1464.45 109.023 1460.68 99.7533 1455.93 90.9847C1453.77 86.4804 1450.23 82.7819 1445.82 80.4257C1441.87 78.8802 1436.33 80.1493 1429.33 84.1936C1406.15 97.5728 1394.37 132.482 1385.09 168.237C1383.19 175.535 1381.7 182.18 1380.24 188.599C1374.92 212.187 1370.71 230.818 1353.74 245.094C1349.98 248.27 1345.7 250.788 1341.1 252.539L1342.82 252.635L1342 264.057C1341.34 271.246 1339.96 278.352 1337.91 285.271C1334.74 293.509 1334.12 302.51 1336.13 311.104C1336.9 312.971 1337.82 314.235 1338.49 314.449C1338.93 314.584 1341.46 315.086 1348.04 311.843C1353.83 308.759 1359.38 305.259 1364.65 301.369C1368.33 298.636 1372.2 296.161 1376.22 293.963L1376.92 293.613L1377.67 293.365C1378.96 292.932 1380.3 292.707 1381.66 292.699ZM1642.07 357.52C1641.1 358.181 1640.2 358.936 1639.39 359.776C1635.31 363.803 1629.17 376.443 1624.19 399.823C1619.88 420.493 1617.68 441.545 1617.61 462.658C1617.52 471.264 1618.23 479.86 1619.7 488.339C1620.21 491.383 1621.1 494.353 1622.33 497.183C1624.24 495.362 1629.76 488.723 1638.03 467.503C1644.15 451.377 1649.38 434.932 1653.72 418.239C1653.41 411.369 1652.84 403.371 1651.91 395.288C1648.82 368.434 1643.93 359.883 1642.07 357.52ZM440.793 402C486.541 414.501 533.336 422.792 580.593 426.768C627.978 430.693 675.605 430.742 722.999 426.914C772.178 423.039 812.367 418.657 849.476 413.123C888.084 407.528 926.332 399.686 964.026 389.637C1009.9 377.275 1054.61 360.935 1097.64 340.801C1091.82 339.673 1085.94 338.511 1081.12 337.225C1078.39 336.551 1075.72 335.641 1073.15 334.507C1070.81 333.641 1068.75 332.166 1067.17 330.234C1065.6 328.302 1064.57 325.983 1064.19 323.519C1063.87 320.587 1064.54 317.634 1066.09 315.125C1067.64 312.615 1069.98 310.693 1072.74 309.66C1105.45 294.03 1168.5 262.794 1204.65 242.398C1201.74 242.274 1198.51 242.161 1194.91 242.054L1191.95 241.958C1172.13 241.123 1160.93 240.576 1151.9 240.13C1137.59 239.425 1128.12 238.963 1097.68 237.981C1083.72 237.53 1032.62 236.453 973.445 235.206C924.249 234.168 868.488 232.995 825.682 231.997C802.367 231.432 785.104 231.015 772.916 230.66C766.211 230.462 761.073 230.293 757.57 230.146C755.664 230.067 754.237 229.994 753.211 229.932C751.138 229.965 749.092 229.464 747.269 228.476C745.446 227.488 743.909 226.047 742.805 224.292L739.484 218.753L742.58 213.112C745.129 208.442 751.107 202.519 838.033 142.24C844.835 137.524 850.21 133.779 852.641 132.087C853.047 131.794 896.349 101.222 911.909 93.8106C946.876 77.1486 997.121 61.9363 1061.29 48.5965C1075.12 45.7236 1089.59 42.9335 1104.72 40.2261C1034.51 47.1469 969.926 57.7115 925.027 74.3566C917.933 77.2133 911.039 80.543 904.391 84.3233C863.332 107.887 823.75 133.936 785.865 162.325C783.734 163.865 779.284 167.182 774.135 171.023C744.559 193.066 734.898 199.976 731.08 201.82H731.047C726.095 203.604 720.839 204.388 715.582 204.127C709.252 204.15 702.942 204.827 696.751 206.146C695.059 206.603 691.032 207.872 690.502 209.751C690.248 210.554 690.132 211.395 690.158 212.238C690.254 212.396 690.491 212.729 690.671 212.971C692.056 214.629 693.027 216.592 693.504 218.698C693.98 220.805 693.949 222.995 693.412 225.087C691.489 231.856 685.133 234.416 679.521 236.684L671.834 239.775C621.589 260.08 574.13 279.224 525.881 303.275L523.721 304.353C499.129 316.138 475.488 329.812 453.009 345.252C441.839 352.777 431.879 361.959 423.474 372.484C416.142 382.592 416.881 388.277 417.704 390.877C421.144 395.435 429.858 398.441 435.802 400.466L440.793 402ZM1104.78 319.193C1111 320.228 1117.16 321.64 1123.22 323.423C1125.13 324.077 1127 324.769 1128.83 325.499C1147.88 315.69 1167.04 304.99 1186.47 293.348C1189.51 291.402 1195.03 287.708 1201.41 283.466C1230.74 263.916 1245.72 254.22 1251.54 251.981C1253.91 251.067 1256.59 250.035 1286.63 250.559C1284.33 249.207 1282.45 247.242 1281.2 244.885C1279.44 241.659 1277.25 235.494 1278.52 219.249C1279.69 206.492 1281.9 193.853 1285.13 181.458C1293.68 147.314 1307.98 114.877 1327.43 85.536C1342.21 63.2478 1361.12 43.9961 1383.14 28.821C1345.35 31.8161 1295.51 36.3623 1241.85 42.832C1175.3 50.8527 1116.09 60.2216 1065.8 70.679C1003.44 83.6521 954.924 98.2722 921.604 114.156C910.888 119.232 877.738 141.873 865.714 150.447C863.164 152.257 858.015 155.828 850.886 160.774C836.905 170.47 815.773 185.124 797.432 198.193C791.917 202.142 787.241 205.498 783.277 208.386C826.528 209.542 908.96 211.279 973.936 212.65C1033.15 213.896 1084.33 214.979 1098.42 215.43C1129.05 216.418 1138.58 216.886 1153.02 217.596C1162 218.036 1173.18 218.583 1192.89 219.413L1195.61 219.497C1200.98 219.655 1210.98 219.954 1220.02 220.654C1224.28 220.937 1228.52 221.434 1232.73 222.143C1235.75 222.31 1238.66 223.304 1241.15 225.016C1243.63 226.729 1245.6 229.093 1246.83 231.85C1247.6 234.276 1247.59 236.881 1246.8 239.3C1246.02 241.72 1244.5 243.834 1242.45 245.348C1222.71 260.746 1143.94 300.038 1104.78 319.193Z" fill="#EC0000" stroke="white" stroke-width="4" mask="url(#path-1-inside-1_1153_290)"/>
</svg>
