<?xml version="1.0" encoding="UTF-8"?>
<svg width="24px" height="24px" viewBox="0 0 24 24" version="1.1" xmlns="http://www.w3.org/2000/svg" xmlns:xlink="http://www.w3.org/1999/xlink">
    <title>SVG/D0390-insurance</title>
    <g id="Symbols" stroke="none" stroke-width="1" fill="none" fill-rule="evenodd">
        <g id="D.-Objects-&amp;-Activities/D0390-insurance-|-OBJECTS,-umbrella,-sombrilla-ACTIVITIES,-contribution,-innsurance,-contribución,-seguro" fill="#EC0000" fill-rule="nonzero">
            <path d="M5.80277595,5.10804496 C10.3250425,0.888346699 17.4163146,0.961252753 21.8516678,5.34967103 C22.026886,5.52303507 22.0469476,5.79371407 21.9114461,5.98935508 L21.8533402,6.05886643 L14.3209038,13.5817368 L21.8542908,21.1471856 C22.0274944,21.3211139 22.046217,21.590578 21.9108143,21.7851639 L21.8528144,21.8542908 C21.6788861,22.0274944 21.409422,22.046217 21.2148361,21.9108143 L21.1457092,21.8528144 L13.6129038,14.2887368 L6.08234023,21.8108664 C5.90874331,21.9842542 5.63944536,22.0034442 5.44466414,21.8684876 L5.37544661,21.8106534 L5.30862502,21.7438091 C0.966665542,17.3317032 0.905841595,10.3130818 5.09567281,5.8158162 L3.77265966,4.49336631 C3.57727992,4.29822183 3.57708921,3.9816394 3.77223369,3.78625966 C3.94569545,3.61258878 4.21510819,3.59314133 4.41005761,3.72801997 L4.47934034,3.78583369 L5.80277595,5.10804496 Z M5.34593478,7.04821668 L5.32695225,7.07148851 C2.16011245,10.9912721 2.22034016,16.6639333 5.52993786,20.5096621 L5.7366265,20.7428017 L9.65840613,16.8265492 C7.20605468,14.3142828 5.63223128,10.6965595 5.34593478,7.04821668 Z M6.30639631,6.28813529 L6.31748015,6.57901686 C6.49954769,10.1245488 7.99780864,13.6890932 10.3656292,16.1194552 L16.1151894,10.3763892 C13.7448188,8.06238288 10.1820221,6.5491627 6.68119109,6.30897669 L6.30639631,6.28813529 Z M20.7824781,5.71507653 C16.9112139,2.22757597 11.0901184,2.102785 7.06730781,5.33615228 C10.7002912,5.65978069 14.3503692,7.25099937 16.8234921,9.67037101 L20.7824781,5.71507653 Z" id="icon-color"></path>
        </g>
    </g>
</svg>