<?xml version="1.0" encoding="UTF-8"?>
<svg width="24px" height="24px" viewBox="0 0 24 24" version="1.1" xmlns="http://www.w3.org/2000/svg" xmlns:xlink="http://www.w3.org/1999/xlink">
    <title>SVG/FA080-email</title>
    <g id="Symbols" stroke="none" stroke-width="1" fill="none" fill-rule="evenodd">
        <g id="F.-Communication/FA080-email-|-COMMUNICATION,-envelope,-email,-message,-sobre,-mensaje" fill="#EC0000" fill-rule="nonzero">
            <path d="M18.0789,5 C19.1127157,5 20.0532191,5.40031569 20.7538217,6.05435859 C20.7896624,6.07585738 20.8228922,6.10350249 20.8528117,6.13601321 C20.8730037,6.15795413 20.8908624,6.181214 20.9064002,6.20548759 C21.5315369,6.85544123 21.9343145,7.72102518 21.9925813,8.67951345 L21.9999,8.921 L21.9999,15.109 C21.9999,17.1909817 20.3652074,18.8907362 18.3091482,18.9949376 L18.1089,19 L5.8909,19 C3.80891832,19 2.10916384,17.3653074 2.00496237,15.3092482 L1.9999,15.109 L1.9999,8.921 C1.9999,6.82351832 3.64773123,5.11014079 5.71915807,5.00510302 L5.9209,5 L18.0789,5 Z M14.5199,12.642 L13.3274496,13.7409775 C12.6153954,14.3751704 11.5628112,14.4124759 10.8055497,13.8482341 L10.6671792,13.7353883 L9.4799,12.642 L3.99608816,17.2926747 C4.46356045,17.698643 5.06271285,17.9569603 5.72101162,17.9950931 L5.8909,18 L18.1089,18 C18.834273,18 19.4971828,17.7329624 20.0047014,17.291815 L14.5199,12.642 Z M3.56537007,7.19362659 C3.24940037,7.62371108 3.04836341,8.14344315 3.0075894,8.70749261 L2.9999,8.921 L2.9999,15.109 C2.9999,15.6194643 3.13214535,16.0989948 3.36424997,16.5152055 L8.7389,11.959 L3.56537007,7.19362659 Z M20.437397,7.1976725 L15.2619,11.96 L20.6360977,16.514223 C20.8419488,16.1447517 20.9691268,15.7254273 20.9949931,15.2788884 L20.9999,15.109 L20.9999,8.921 C20.9999,8.34817953 20.8348939,7.81379516 20.5498341,7.36279931 L20.437397,7.1976725 Z M18.0789,6 L5.9209,6 C5.31542874,6 4.75290017,6.18435292 4.28640008,6.49997295 L11.3384496,12.9942225 C11.6844384,13.3023783 12.1914024,13.328058 12.5595702,13.0754715 L12.6563132,12.9996883 L19.7164018,6.50200665 C19.3076999,6.22475269 18.8250727,6.04834432 18.304313,6.00857432 L18.0789,6 Z" id="icon-color"></path>
        </g>
    </g>
</svg>