<?xml version="1.0" encoding="UTF-8"?>
<svg width="24px" height="24px" viewBox="0 0 24 24" version="1.1" xmlns="http://www.w3.org/2000/svg" xmlns:xlink="http://www.w3.org/1999/xlink">
    <title>SVG/CA020-account user</title>
    <g id="Symbols" stroke="none" stroke-width="1" fill="none" fill-rule="evenodd">
        <g id="C.-People-&amp;-Nature/a.-People/CA020-account-user-|-PEOPLE,-profile,-account,-user,-perfil,-cuenta,-usuario,-personal,-area" fill="#EC0000" fill-rule="nonzero">
            <path d="M16.723,15.5004 C19.7373918,15.5004 22,17.0583442 22,19.1924 L22,20.0584 C22,21.1206978 21.1990834,22.0004 20.1869084,22.0004 L3.812,21.9974 C2.80069748,21.9974 2,21.1174756 2,20.0554 L2,19.1904 C2,17.1142584 4.43965906,15.5004 7.274,15.5004 C7.58658838,15.5004 7.94795907,15.5389192 8.39571456,15.6114546 L9.47720752,15.8060639 L9.47720752,15.8060639 C9.7780175,15.8593464 10.0820071,15.9247569 10.3905774,16.0022105 L10.9430185,16.1528499 L10.9430185,16.1528499 L11.2255657,16.2382445 L11.2255657,16.2382445 C11.569926,16.3405571 11.7842746,16.3834 11.998,16.3834 C12.0666428,16.3834 12.1458732,16.3760102 12.2416296,16.3602828 L12.456937,16.3174304 C12.4970805,16.3083419 12.5395002,16.2982568 12.584416,16.28714 L13.681617,15.9848986 L13.681617,15.9848986 C14.8112514,15.6872859 15.8851836,15.5004 16.723,15.5004 Z M16.723,16.5004 C16.0709766,16.5004 15.2087116,16.6378443 14.284501,16.8635166 L13.7739526,16.9955383 L13.7739526,16.9955383 L13.1289958,17.1780737 L13.1289958,17.1780737 L12.7730529,17.2710161 C12.4509844,17.3490509 12.2210627,17.3834 11.998,17.3834 C11.7207195,17.3834 11.469629,17.3424502 11.1450932,17.2549564 L10.8318984,17.1640923 L10.8318984,17.1640923 L10.5797844,17.0882034 L10.5797844,17.0882034 C10.2894933,17.0053577 10.0037814,16.9335479 9.72229713,16.8730458 L8.70145367,16.6799728 L8.70145367,16.6799728 L8.23580149,16.5985857 L8.23580149,16.5985857 C7.83642592,16.5338878 7.52225818,16.5004 7.274,16.5004 C4.92603908,16.5004 3,17.7744938 3,19.1904 L3,20.0554 C3,20.5851433 3.37513777,20.9974 3.8120916,20.9974 L20.187,21.0004 C20.624772,21.0004 21,20.5882611 21,20.0584 L21,19.1924 C21,17.7071988 19.2473616,16.5004 16.723,16.5004 Z M11.9951,2 C14.6121362,2 16.8886568,4.0332344 16.6211524,6.47140155 L16.5955202,6.6597241 L16.0804251,10.939118 C15.7629292,13.0284456 14.1241489,14.439 11.9951,14.439 C9.94126187,14.439 8.34764768,13.1248721 7.95240768,11.1390336 L7.91467978,10.9237241 L7.40459404,6.68032351 C6.99089628,4.13857314 9.31179438,2 11.9951,2 Z M11.9951,3 C9.94201721,3 8.19610121,4.55143327 8.37231924,6.36912634 L8.90542508,10.788882 C9.14892444,12.3912649 10.3630245,13.439 11.9951,13.439 C13.5642031,13.439 14.750314,12.472097 15.0560801,10.9919364 L15.0896798,10.8042759 L15.6055607,6.51988136 C15.9089574,4.65092615 14.113614,3 11.9951,3 Z" id="icon-color"></path>
        </g>
    </g>
</svg>