<?xml version="1.0" encoding="UTF-8"?>
<svg width="24px" height="24px" viewBox="0 0 24 24" version="1.1" xmlns="http://www.w3.org/2000/svg" xmlns:xlink="http://www.w3.org/1999/xlink">
    <title>SVG/FA110-phone</title>
    <g id="Symbols" stroke="none" stroke-width="1" fill="none" fill-rule="evenodd">
        <g id="F.-Communication/FA110-phone-|-COMMUNICATION,-Phone,-call,-teléfono,-llamada" fill="#EC0000" fill-rule="nonzero">
            <path d="M15.6089213,14.5155927 C16.0747472,13.4050739 17.3353031,12.8598835 18.4642467,13.2803444 L20.5348355,14.0501917 C21.4156083,14.3767848 22,15.2176045 22,16.157 L22,19.386 C22,20.8300248 20.8292601,22 19.385,22 C9.78319841,22 2,14.2164832 2,4.615 C2,3.17073988 3.16997519,2 4.614,2 L7.843,2 C8.78147705,2 9.62146773,2.58443698 9.94958168,3.46455457 L10.7207325,5.53596035 C11.1399353,6.66497892 10.5948447,7.92400046 9.48480592,8.39091134 L7.29862627,9.31016528 C8.79768311,12.0451415 11.9662072,15.2166098 14.6902625,16.7022934 L15.6089213,14.5155927 Z M14.7215481,17.8427772 L14.6653292,17.8151601 C11.5008714,16.2675182 7.69436624,12.4476947 6.1561505,9.27725543 C6.03101037,9.01932724 6.14792341,8.70921029 6.41219408,8.59808866 L9.09713864,7.46911197 C9.71333145,7.20992543 10.0159981,6.51084189 9.78341832,5.88444543 L9.0124985,3.81366065 C8.83019764,3.32466542 8.36356749,3 7.843,3 L4.614,3 C3.72240626,3 3,3.72287842 3,4.615 C3,13.6642076 10.3354923,21 19.385,21 C20.2771216,21 21,20.2775937 21,19.386 L21,16.157 C21,15.6356083 20.6756546,15.1689418 20.1867533,14.9876556 L18.1154914,14.2175582 C17.4888833,13.9841859 16.7893297,14.2867428 16.5309727,14.90266 L15.4029727,17.58766 C15.2915363,17.8529141 14.9797846,17.9696302 14.7215481,17.8427772 Z" id="icon-color"></path>
        </g>
    </g>
</svg>