<svg width="1477" height="186" viewBox="0 0 1477 186" fill="none" xmlns="http://www.w3.org/2000/svg">
<path d="M107.63 78.45C107.408 73.2134 105.922 68.1083 103.3 63.57L79.81 22.85C78.0477 19.7884 76.7915 16.4622 76.09 13L75.09 14.7C72.2305 19.6528 70.7251 25.271 70.7251 30.99C70.7251 36.709 72.2305 42.3272 75.09 47.28L93.9 79.87C96.7595 84.8228 98.2649 90.441 98.2649 96.16C98.2649 101.879 96.7595 107.497 93.9 112.45L92.9 114.15C92.1985 110.688 90.9423 107.362 89.18 104.3L71.98 74.47L60.98 55.47C59.2177 52.4084 57.9615 49.0822 57.26 45.62L56.26 47.32C53.4109 52.256 51.906 57.8528 51.8954 63.552C51.8849 69.2512 53.3691 74.8536 56.2 79.8L75.07 112.49C77.9295 117.443 79.4349 123.061 79.4349 128.78C79.4349 134.499 77.9295 140.117 75.07 145.07L74.07 146.77C73.3685 143.308 72.1123 139.982 70.35 136.92L46.87 96.17C43.7753 90.7972 42.2735 84.6546 42.54 78.46C17.37 85.04 0 99 0 115.17C0 137.66 33.62 155.9 75.09 155.9C116.56 155.9 150.18 137.66 150.18 115.17C150.18 98.99 132.81 85.03 107.63 78.45ZM178.53 147.99C178.689 143.131 179.593 138.325 181.21 133.74C189.354 137.295 198.134 139.166 207.02 139.24C220.14 139.24 227.48 135.01 227.48 126.69C227.48 118.37 222.12 114.69 208.86 108.92L201.66 105.81C188.41 100.03 179.38 92.56 179.38 77.6C179.38 61.52 190.52 51.23 213.38 51.23C222.153 51.1206 230.881 52.5037 239.19 55.32C238.883 60.1247 237.934 64.8667 236.37 69.42C228.938 66.7909 221.123 65.4089 213.24 65.33C200.97 65.33 195.33 70.13 195.33 77.6C195.33 85.07 200.83 89.17 210.7 93.4L218.32 96.65C236.23 104.26 243.71 112.3 243.71 125.98C243.71 142.21 231.44 153.35 207.46 153.35C195.88 153.35 186.43 151.66 178.53 147.99ZM319.45 80.57V151.09H305.2L304.35 142.63C300.35 148.84 294.35 152.78 284.47 152.78C265.85 152.78 253.47 139.24 253.47 115.55C253.47 90.72 266.73 76.62 292.83 76.62C302.94 76.62 311.27 77.75 319.45 80.57ZM303.93 135.01V90.72C300.248 90.1178 296.521 89.8368 292.79 89.88C276.71 89.88 269.23 99.75 269.23 115.55C269.23 129.93 275.02 140.09 288.84 140.09C294.298 140.143 299.615 138.353 303.93 135.01ZM398.86 103.7V151.09H383.35V106.38C383.35 95.24 379.68 89.88 364.16 89.88C360.047 89.9309 355.944 90.3054 351.89 91V151.09H336.38V80.57C346.25 78.17 357.11 76.57 364.59 76.57C390.54 76.62 398.86 86.63 398.86 103.7ZM441.86 139.53C445.996 139.542 450.103 138.824 453.99 137.41C453.56 141.64 452.99 146.41 452.15 150.53C447.963 152.106 443.513 152.87 439.04 152.78C423.94 152.78 414.35 145.87 414.35 128.66V54.61C419.385 53.1046 424.614 52.3465 429.87 52.36V79.01H454.41C454.19 83.453 453.72 87.8801 453 92.27H429.9V126.83C429.9 136 434.41 139.53 441.89 139.53H441.86ZM525.08 80.53V151.05H510.86L510.02 142.59C506.02 148.8 500.02 152.74 490.13 152.74C471.51 152.74 459.13 139.2 459.13 115.51C459.13 90.68 472.39 76.58 498.48 76.58C508.61 76.62 516.93 77.75 525.11 80.57L525.08 80.53ZM509.56 134.97V90.72C505.878 90.1178 502.151 89.8368 498.42 89.88C482.34 89.88 474.87 99.75 474.87 115.55C474.87 129.93 480.65 140.09 494.47 140.09C499.939 140.152 505.268 138.362 509.59 135.01L509.56 134.97ZM604.5 103.66V151.05H589.01V106.38C589.01 95.24 585.34 89.88 569.83 89.88C565.717 89.9292 561.614 90.3037 557.56 91V151.09H542.04V80.57C551.91 78.17 562.78 76.57 570.25 76.57C596.2 76.62 604.53 86.63 604.53 103.7L604.5 103.66ZM683.21 52.32V151.05H668.99L668.14 142.05C664.14 148.68 658.14 152.77 647.97 152.77C629.36 152.77 616.97 139.23 616.97 115.54C616.97 90.71 630.23 76.61 656.33 76.61C660.211 76.6138 664.082 76.9922 667.89 77.74V54.47C672.66 52.78 678.16 52.36 683.24 52.36L683.21 52.32ZM667.83 134.69V91.29C663.752 90.4014 659.594 89.929 655.42 89.88C640.05 89.88 632.71 99.47 632.71 115.55C632.71 129.93 638.49 140.09 652.32 140.09C657.957 140.114 663.436 138.224 667.86 134.73L667.83 134.69ZM761.21 120.87H711.73C713.73 133.42 721.04 139.49 734.87 139.49C743.426 139.489 751.885 137.676 759.69 134.17C759.13 138.26 758.28 143.62 757.29 148.27C750.24 151.52 742.76 152.78 734.44 152.78C708.44 152.78 695.94 138.4 695.94 114.28C695.94 93.28 705.67 76.62 730.35 76.62C752.5 76.62 762.09 91.14 762.09 108.92C762.1 112.932 761.816 116.94 761.24 120.91L761.21 120.87ZM711.42 107.87H746.42C746.42 96.3 740.22 89.53 729.5 89.53C718.5 89.59 712.72 95.94 711.45 107.93L711.42 107.87ZM815.55 77.17C815.595 81.6297 815.122 86.0795 814.14 90.43C810.251 90.0168 806.341 89.8298 802.43 89.87C798.608 89.8698 794.791 90.1506 791.01 90.71V151.08H775.49V80.57C782.12 78.31 793.26 76.57 802.01 76.57C806.531 76.5288 811.051 76.7291 815.55 77.17Z" fill="#EC0000"/>
<path d="M927.42 156.1C922.66 156.1 918.087 155.587 913.7 154.56C909.314 153.533 905.487 152.04 902.22 150.08C902.407 147.653 902.594 145.647 902.78 144.06C903.06 142.473 903.434 140.933 903.9 139.44C907.354 141.4 911.18 142.893 915.38 143.92C919.58 144.947 923.64 145.46 927.56 145.46C934.187 145.46 939.367 144.06 943.1 141.26C946.834 138.46 948.7 134.54 948.7 129.5C948.7 126.14 947.86 123.293 946.18 120.96C944.594 118.533 942.54 116.573 940.02 115.08C937.5 113.587 934.467 112.14 930.92 110.74L923.78 107.94C916.967 105.14 911.694 101.593 907.96 97.3C904.227 93.0067 902.36 87.4067 902.36 80.5C902.36 72.4733 905.02 66.22 910.34 61.74C915.754 57.26 923.687 55.02 934.14 55.02C942.914 55.02 950.847 56.5133 957.94 59.5C957.847 61.5533 957.66 63.3733 957.38 64.96C957.1 66.4533 956.68 68.04 956.12 69.72C952.574 68.4133 948.934 67.4333 945.2 66.78C941.467 66.0333 937.92 65.66 934.56 65.66C928.027 65.66 923.127 66.9667 919.86 69.58C916.594 72.1933 914.96 75.74 914.96 80.22C914.96 84.8867 916.407 88.5733 919.3 91.28C922.194 93.8933 926.067 96.18 930.92 98.14L938.34 100.94C945.434 103.647 951.034 107.147 955.14 111.44C959.34 115.733 961.44 121.567 961.44 128.94C961.44 134.26 960.134 138.973 957.52 143.08C955 147.093 951.174 150.267 946.04 152.6C941 154.933 934.794 156.1 927.42 156.1ZM1029.2 113.96C1029.2 115.547 1029.11 117.227 1028.92 119C1028.83 120.773 1028.69 122.127 1028.5 123.06H983.144C983.797 131.087 985.99 136.873 989.724 140.42C993.457 143.967 998.87 145.74 1005.96 145.74C1013.52 145.74 1020.48 143.827 1026.82 140C1026.64 141.773 1026.36 143.687 1025.98 145.74C1025.7 147.793 1025.38 149.52 1025 150.92C1019.68 154.093 1012.87 155.68 1004.56 155.68C993.364 155.68 984.917 152.46 979.224 146.02C973.53 139.58 970.684 130.48 970.684 118.72C970.684 111.813 971.757 105.7 973.904 100.38C976.144 94.9667 979.55 90.72 984.124 87.64C988.697 84.4667 994.344 82.88 1001.06 82.88C1010.4 82.88 1017.4 85.68 1022.06 91.28C1026.82 96.88 1029.2 104.44 1029.2 113.96ZM1000.64 92.82C995.604 92.82 991.59 94.5933 988.604 98.14C985.617 101.687 983.844 106.727 983.284 113.26H1016.88C1016.79 106.82 1015.44 101.827 1012.82 98.28C1010.3 94.64 1006.24 92.82 1000.64 92.82ZM1073.61 82.88C1082.39 82.88 1090.41 84.14 1097.69 86.66V152.88C1097.69 163.333 1095.03 171.36 1089.71 176.96C1084.39 182.56 1076.27 185.36 1065.35 185.36C1057.98 185.36 1051.35 183.913 1045.47 181.02C1045.47 177.66 1045.8 174.16 1046.45 170.52C1049.35 171.92 1052.47 172.993 1055.83 173.74C1059.19 174.58 1062.27 175 1065.07 175C1071.79 175 1076.88 173.227 1080.33 169.68C1083.88 166.133 1085.65 160.953 1085.65 154.14V145.04C1083.79 148.493 1081.36 151.153 1078.37 153.02C1075.39 154.793 1071.75 155.68 1067.45 155.68C1061.85 155.68 1057 154.373 1052.89 151.76C1048.79 149.053 1045.57 145.04 1043.23 139.72C1040.99 134.307 1039.87 127.68 1039.87 119.84C1039.87 108.08 1042.58 98.98 1047.99 92.54C1053.5 86.1 1062.04 82.88 1073.61 82.88ZM1070.81 145.74C1076.69 145.74 1081.64 143.5 1085.65 139.02V94.36C1082.01 93.3333 1078.05 92.82 1073.75 92.82C1066.1 92.82 1060.59 95.1533 1057.23 99.82C1053.87 104.487 1052.19 111.067 1052.19 119.56C1052.19 128.24 1053.73 134.773 1056.81 139.16C1059.99 143.547 1064.65 145.74 1070.81 145.74ZM1169.61 84.56V151.48C1160.19 154.28 1151.55 155.68 1143.71 155.68C1133.45 155.68 1126.07 153.58 1121.59 149.38C1117.21 145.087 1115.01 138.973 1115.01 131.04V84.56H1127.05V129.5C1127.05 135.193 1128.31 139.393 1130.83 142.1C1133.45 144.713 1137.79 146.02 1143.85 146.02C1148.15 146.02 1152.72 145.413 1157.57 144.2V84.56H1169.61ZM1210.31 83.16C1215.82 83.16 1220.53 83.58 1224.45 84.42C1224.45 86.2867 1224.36 88.2 1224.17 90.16C1223.98 92.12 1223.7 93.66 1223.33 94.78C1220.06 93.94 1215.77 93.52 1210.45 93.52C1207.09 93.52 1203.45 93.8933 1199.53 94.64V154H1187.49V86.94C1190.57 85.82 1194.21 84.9333 1198.41 84.28C1202.61 83.5333 1206.58 83.16 1210.31 83.16ZM1259.62 155.68C1252.99 155.68 1247.35 154.233 1242.68 151.34C1238.01 148.353 1234.47 144.153 1232.04 138.74C1229.61 133.233 1228.4 126.747 1228.4 119.28C1228.4 111.72 1229.57 105.233 1231.9 99.82C1234.33 94.3133 1237.87 90.1133 1242.54 87.22C1247.21 84.3267 1252.9 82.88 1259.62 82.88C1266.34 82.88 1272.03 84.3733 1276.7 87.36C1281.37 90.2533 1284.91 94.4067 1287.34 99.82C1289.77 105.233 1290.98 111.72 1290.98 119.28C1290.98 126.84 1289.77 133.327 1287.34 138.74C1284.91 144.153 1281.32 148.353 1276.56 151.34C1271.89 154.233 1266.25 155.68 1259.62 155.68ZM1259.62 145.74C1265.97 145.74 1270.73 143.453 1273.9 138.88C1277.07 134.307 1278.66 127.773 1278.66 119.28C1278.66 110.787 1277.07 104.253 1273.9 99.68C1270.73 95.1067 1265.97 92.82 1259.62 92.82C1253.27 92.82 1248.51 95.1067 1245.34 99.68C1242.26 104.16 1240.72 110.693 1240.72 119.28C1240.72 127.867 1242.26 134.447 1245.34 139.02C1248.51 143.5 1253.27 145.74 1259.62 145.74ZM1321.19 155.68C1317.18 155.68 1313.35 155.26 1309.71 154.42C1306.07 153.58 1302.9 152.413 1300.19 150.92C1300.28 148.96 1300.42 147.233 1300.61 145.74C1300.89 144.153 1301.31 142.52 1301.87 140.84C1304.67 142.427 1307.7 143.64 1310.97 144.48C1314.33 145.32 1317.55 145.74 1320.63 145.74C1330.62 145.74 1335.61 142.567 1335.61 136.22C1335.61 134.26 1335.19 132.673 1334.35 131.46C1333.6 130.153 1332.44 129.033 1330.85 128.1C1329.26 127.167 1327.12 126.187 1324.41 125.16L1318.67 122.92C1314.84 121.427 1311.62 119.793 1309.01 118.02C1306.4 116.247 1304.34 114.1 1302.85 111.58C1301.36 108.967 1300.61 105.793 1300.61 102.06C1300.61 95.9933 1302.76 91.28 1307.05 87.92C1311.34 84.56 1317.5 82.88 1325.53 82.88C1333 82.88 1339.62 83.9067 1345.41 85.96C1345.04 89.7867 1344.52 93.1 1343.87 95.9C1340.79 94.8733 1337.9 94.1267 1335.19 93.66C1332.48 93.1 1329.54 92.82 1326.37 92.82C1317.04 92.82 1312.37 95.8067 1312.37 101.78C1312.37 104.393 1313.3 106.587 1315.17 108.36C1317.04 110.04 1320.02 111.673 1324.13 113.26L1329.87 115.5C1336.03 117.833 1340.56 120.493 1343.45 123.48C1346.34 126.467 1347.79 130.387 1347.79 135.24C1347.79 139.253 1346.76 142.8 1344.71 145.88C1342.75 148.96 1339.76 151.387 1335.75 153.16C1331.74 154.84 1326.88 155.68 1321.19 155.68Z" fill="#EC0000"/>
<path d="M856.14 30.7C856.98 30.42 857.913 30.1867 858.94 30C860.06 29.8133 861.087 29.72 862.02 29.72V171.68H856.14V30.7Z" fill="#EC0000"/>
</svg>
